<svg xmlns="http://www.w3.org/2000/svg" xmlns:xlink="http://www.w3.org/1999/xlink" width="271.624" height="271.624" viewBox="0 0 271.624 271.624">
  <defs>
    <clipPath id="a"><rect width="271.624" height="271.624" fill="none"/></clipPath>
    <clipPath id="b"><circle cx="135.812" cy="135.812" r="135.812" transform="translate(0)"/></clipPath>
  </defs>
  <g transform="translate(0 0)" clip-path="url(#a)"><circle cx="135.812" cy="135.812" r="135.812" fill="#fff"/>
    <g transform="translate(0)" clip-path="url(#b)">
      <g transform="translate(14.462 0.033)">
        <g transform="translate(0 0)"><path
          d="M83.35,406.892s12.687-61.911,25.644-80.113,62.872-32.541,61.5-39.432c2.813-1.957,8.925-4.6,10.191-7.77.873-2.186.182-5.614-.041-7.864-.475-4.764-.744-11.07-2.918-15.447a72.924,72.924,0,0,1-6.886,6.7,8.381,8.381,0,0,1-2.01,1.418c-1.535.692-3.211.428-4.823.223-8.6-1.09-17.129-.727-25.433-3.727a6.537,6.537,0,0,1-3.264-2.069,6.705,6.705,0,0,1-.932-3.446c-.434-6.229.592-12.476,1.149-18.676q.774-8.641,1.3-17.3c.656-10.706,1.09-21.43,1.406-32.154l2.2-16.549s-9.1-17.1,3.862-43.569L152.7,113.89h91.276s18.612,28.263,18.2,36.537c0,0,11.831,6.634,10.548,64.326-.234,10.659,3.246,20.956,6.247,31.041a1.043,1.043,0,0,1,.059.58,1.013,1.013,0,0,1-.393.469c-5.2,4.1-11.392,8.362-18.319,8.034l-8.685-.416s-2.274,8.685,28.544,11.579,31.023,4.137,31.023,4.137,27.027-.416,28.609,4.547,0,132.168,0,132.168Z"
          transform="translate(-83.35 -113.89)"
          fill="none"
          stroke="#000"
          stroke-miterlimit="10"
          stroke-width="1"/></g>
      </g>
      <!-- <g transform="translate(0)" fill="none" stroke="#000" stroke-width="1"><circle cx="135.812" cy="135.812" r="135.812" stroke="none"/><circle cx="135.812" cy="135.812" r="135.312" fill="none"/></g> -->
    </g>
  </g>
</svg>
